<?xml version="1.0" encoding="UTF-8" standalone="no"?>
<!DOCTYPE svg PUBLIC "-//W3C//DTD SVG 1.1//EN"
 "http://www.w3.org/Graphics/SVG/1.1/DTD/svg11.dtd">
<!-- Generated by graphviz version 2.44.1 (20220725.2034)
 -->
<!-- Title: source tree Pages: 1 -->
<svg width="576pt" height="720pt"
 viewBox="0.00 0.00 576.00 719.85" xmlns="http://www.w3.org/2000/svg" xmlns:xlink="http://www.w3.org/1999/xlink">
<g id="graph0" class="graph" transform="scale(0.26 0.26) rotate(0) translate(4 2790.94)">
<title>source tree</title>
<polygon fill="white" stroke="transparent" points="-4,4 -4,-2790.94 2232.42,-2790.94 2232.42,4 -4,4"/>
<!-- GeneralGameWidget.h -->
<g id="node1" class="node">
<title>GeneralGameWidget.h</title>
<ellipse fill="none" stroke="black" cx="551.94" cy="-1009" rx="243.9" ry="30.31"/>
<text text-anchor="middle" x="551.94" y="-1000.9" font-family="Helvetica,sans-Serif" font-size="32.00">GeneralGameWidget.h</text>
</g>
<!-- GameBoard.h -->
<g id="node2" class="node">
<title>GameBoard.h</title>
<ellipse fill="none" stroke="black" cx="1586.94" cy="-241" rx="153.38" ry="30.31"/>
<text text-anchor="middle" x="1586.94" y="-232.9" font-family="Helvetica,sans-Serif" font-size="32.00">GameBoard.h</text>
</g>
<!-- GeneralGameWidget.h&#45;&gt;GameBoard.h -->
<g id="edge1" class="edge">
<title>GeneralGameWidget.h&#45;&gt;GameBoard.h</title>
<path fill="none" stroke="black" d="M591.25,-978.91C752.82,-859.32 1365.5,-405.88 1540.19,-276.6"/>
<polygon fill="black" stroke="black" points="1542.46,-279.27 1548.41,-270.51 1538.29,-273.65 1542.46,-279.27"/>
</g>
<!-- CmdGame.cpp -->
<g id="node3" class="node">
<title>CmdGame.cpp</title>
<ellipse fill="none" stroke="black" cx="1652.94" cy="-1778" rx="164.51" ry="30.31"/>
<text text-anchor="middle" x="1652.94" y="-1769.9" font-family="Helvetica,sans-Serif" font-size="32.00">CmdGame.cpp</text>
</g>
<!-- common.h -->
<g id="node4" class="node">
<title>common.h</title>
<ellipse fill="none" stroke="black" cx="1327.94" cy="-1009" rx="118.17" ry="30.31"/>
<text text-anchor="middle" x="1327.94" y="-1000.9" font-family="Helvetica,sans-Serif" font-size="32.00">common.h</text>
</g>
<!-- CmdGame.cpp&#45;&gt;common.h -->
<g id="edge2" class="edge">
<title>CmdGame.cpp&#45;&gt;common.h</title>
<path fill="none" stroke="black" d="M1640.39,-1747.4C1589.92,-1628.29 1401.62,-1183.89 1344.48,-1049.04"/>
<polygon fill="black" stroke="black" points="1347.56,-1047.35 1340.44,-1039.51 1341.12,-1050.08 1347.56,-1047.35"/>
</g>
<!-- common.h&#45;&gt;GameBoard.h -->
<g id="edge5" class="edge">
<title>common.h&#45;&gt;GameBoard.h</title>
<path fill="none" stroke="black" d="M1337.93,-978.44C1378.15,-859.48 1528.22,-415.66 1573.75,-280.99"/>
<polygon fill="black" stroke="black" points="1577.08,-282.06 1576.97,-271.47 1570.45,-279.82 1577.08,-282.06"/>
</g>
<!-- GUIGame.cpp -->
<g id="node5" class="node">
<title>GUIGame.cpp</title>
<ellipse fill="none" stroke="black" cx="847.94" cy="-2546" rx="156.96" ry="30.31"/>
<text text-anchor="middle" x="847.94" y="-2537.9" font-family="Helvetica,sans-Serif" font-size="32.00">GUIGame.cpp</text>
</g>
<!-- GUIGame.cpp&#45;&gt;common.h -->
<g id="edge3" class="edge">
<title>GUIGame.cpp&#45;&gt;common.h</title>
<path fill="none" stroke="black" d="M843.17,-2515.53C827.1,-2409.11 780.56,-2035.77 866.94,-1747.59 957.15,-1446.61 1205.27,-1147.61 1295.01,-1046.22"/>
<polygon fill="black" stroke="black" points="1297.66,-1048.5 1301.69,-1038.7 1292.43,-1043.85 1297.66,-1048.5"/>
</g>
<!-- MineButton.h -->
<g id="node6" class="node">
<title>MineButton.h</title>
<ellipse fill="none" stroke="black" cx="1021.94" cy="-1778" rx="145.83" ry="30.31"/>
<text text-anchor="middle" x="1021.94" y="-1769.9" font-family="Helvetica,sans-Serif" font-size="32.00">MineButton.h</text>
</g>
<!-- GUIGame.cpp&#45;&gt;MineButton.h -->
<g id="edge4" class="edge">
<title>GUIGame.cpp&#45;&gt;MineButton.h</title>
<path fill="none" stroke="black" d="M854.65,-2515.44C881.65,-2396.6 982.29,-1953.55 1012.99,-1818.4"/>
<polygon fill="black" stroke="black" points="1016.44,-1819 1015.24,-1808.47 1009.61,-1817.45 1016.44,-1819"/>
</g>
<!-- GUIGame.h -->
<g id="node8" class="node">
<title>GUIGame.h</title>
<ellipse fill="none" stroke="black" cx="132.94" cy="-1778" rx="132.87" ry="30.31"/>
<text text-anchor="middle" x="132.94" y="-1769.9" font-family="Helvetica,sans-Serif" font-size="32.00">GUIGame.h</text>
</g>
<!-- GUIGame.cpp&#45;&gt;GUIGame.h -->
<g id="edge13" class="edge">
<title>GUIGame.cpp&#45;&gt;GUIGame.h</title>
<path fill="none" stroke="black" d="M820.78,-2515.91C709.73,-2396.94 290.26,-1947.55 167.12,-1815.62"/>
<polygon fill="black" stroke="black" points="169.5,-1813.04 160.12,-1808.12 164.38,-1817.82 169.5,-1813.04"/>
</g>
<!-- MineButton.cpp -->
<g id="node7" class="node">
<title>MineButton.cpp</title>
<ellipse fill="none" stroke="black" cx="1518.94" cy="-2546" rx="169.91" ry="30.31"/>
<text text-anchor="middle" x="1518.94" y="-2537.9" font-family="Helvetica,sans-Serif" font-size="32.00">MineButton.cpp</text>
</g>
<!-- MineButton.cpp&#45;&gt;GameBoard.h -->
<g id="edge12" class="edge">
<title>MineButton.cpp&#45;&gt;GameBoard.h</title>
<path fill="none" stroke="black" d="M1536.37,-2515.51C1592.56,-2418.56 1768.58,-2099.23 1826.94,-1808.41 1948.18,-1204.14 1673.46,-457.97 1602.92,-280.95"/>
<polygon fill="black" stroke="black" points="1606.11,-279.5 1599.14,-271.52 1599.61,-282.11 1606.11,-279.5"/>
</g>
<!-- MineButton.cpp&#45;&gt;MineButton.h -->
<g id="edge6" class="edge">
<title>MineButton.cpp&#45;&gt;MineButton.h</title>
<path fill="none" stroke="black" d="M1499.76,-2515.44C1422.42,-2396.24 1133.46,-1950.88 1046.71,-1817.19"/>
<polygon fill="black" stroke="black" points="1049.44,-1814.95 1041.06,-1808.47 1043.56,-1818.76 1049.44,-1814.95"/>
</g>
<!-- GUIGame.h&#45;&gt;GeneralGameWidget.h -->
<g id="edge7" class="edge">
<title>GUIGame.h&#45;&gt;GeneralGameWidget.h</title>
<path fill="none" stroke="black" d="M149.1,-1747.4C214.24,-1628.17 457.43,-1183 530.83,-1048.64"/>
<polygon fill="black" stroke="black" points="534.09,-1049.96 535.82,-1039.51 527.95,-1046.61 534.09,-1049.96"/>
</g>
<!-- common.cpp -->
<g id="node9" class="node">
<title>common.cpp</title>
<ellipse fill="none" stroke="black" cx="1327.94" cy="-1778" rx="142.26" ry="30.31"/>
<text text-anchor="middle" x="1327.94" y="-1769.9" font-family="Helvetica,sans-Serif" font-size="32.00">common.cpp</text>
</g>
<!-- common.cpp&#45;&gt;common.h -->
<g id="edge8" class="edge">
<title>common.cpp&#45;&gt;common.h</title>
<path fill="none" stroke="black" d="M1327.94,-1747.4C1327.94,-1628.52 1327.94,-1185.67 1327.94,-1049.85"/>
<polygon fill="black" stroke="black" points="1331.44,-1049.51 1327.94,-1039.51 1324.44,-1049.51 1331.44,-1049.51"/>
</g>
<!-- GameBoard.cpp -->
<g id="node10" class="node">
<title>GameBoard.cpp</title>
<ellipse fill="none" stroke="black" cx="2050.94" cy="-1009" rx="177.47" ry="30.31"/>
<text text-anchor="middle" x="2050.94" y="-1000.9" font-family="Helvetica,sans-Serif" font-size="32.00">GameBoard.cpp</text>
</g>
<!-- GameBoard.cpp&#45;&gt;GameBoard.h -->
<g id="edge9" class="edge">
<title>GameBoard.cpp&#45;&gt;GameBoard.h</title>
<path fill="none" stroke="black" d="M2033.03,-978.44C1960.83,-859.24 1691.05,-413.88 1610.07,-280.19"/>
<polygon fill="black" stroke="black" points="1612.96,-278.21 1604.79,-271.47 1606.98,-281.84 1612.96,-278.21"/>
</g>
<!-- GeneralGameWidget.cpp -->
<g id="node11" class="node">
<title>GeneralGameWidget.cpp</title>
<ellipse fill="none" stroke="black" cx="551.94" cy="-1778" rx="267.99" ry="30.31"/>
<text text-anchor="middle" x="551.94" y="-1769.9" font-family="Helvetica,sans-Serif" font-size="32.00">GeneralGameWidget.cpp</text>
</g>
<!-- GeneralGameWidget.cpp&#45;&gt;GeneralGameWidget.h -->
<g id="edge10" class="edge">
<title>GeneralGameWidget.cpp&#45;&gt;GeneralGameWidget.h</title>
<path fill="none" stroke="black" d="M551.94,-1747.4C551.94,-1628.52 551.94,-1185.67 551.94,-1049.85"/>
<polygon fill="black" stroke="black" points="555.44,-1049.51 551.94,-1039.51 548.44,-1049.51 555.44,-1049.51"/>
</g>
<!-- GeneralGameWidget.cpp&#45;&gt;common.h -->
<g id="edge11" class="edge">
<title>GeneralGameWidget.cpp&#45;&gt;common.h</title>
<path fill="none" stroke="black" d="M581.88,-1747.4C703.39,-1627.3 1159.47,-1176.51 1291.76,-1045.76"/>
<polygon fill="black" stroke="black" points="1294.26,-1048.21 1298.91,-1038.69 1289.34,-1043.23 1294.26,-1048.21"/>
</g>
</g>
</svg>
