<?xml version="1.0" encoding="UTF-8" standalone="no"?>
<!DOCTYPE svg PUBLIC "-//W3C//DTD SVG 1.1//EN"
 "http://www.w3.org/Graphics/SVG/1.1/DTD/svg11.dtd">
<!-- Generated by graphviz version 2.44.1 (20220725.2034)
 -->
<!-- Title: source tree Pages: 1 -->
<svg width="576pt" height="720pt"
 viewBox="0.00 0.00 576.00 719.85" xmlns="http://www.w3.org/2000/svg" xmlns:xlink="http://www.w3.org/1999/xlink">
<g id="graph0" class="graph" transform="scale(0.29 0.29) rotate(0) translate(4 2465.72)">
<title>source tree</title>
<polygon fill="white" stroke="transparent" points="-4,4 -4,-2465.72 1972.19,-2465.72 1972.19,4 -4,4"/>
<!-- MineButton.cpp -->
<g id="node1" class="node">
<title>MineButton.cpp</title>
<ellipse fill="none" stroke="black" cx="169.71" cy="-2249" rx="169.91" ry="30.31"/>
<text text-anchor="middle" x="169.71" y="-2240.9" font-family="Helvetica,sans-Serif" font-size="32.00">MineButton.cpp</text>
</g>
<!-- GameBoard.h -->
<g id="node2" class="node">
<title>GameBoard.h</title>
<ellipse fill="none" stroke="black" cx="1149.71" cy="-213" rx="153.38" ry="30.31"/>
<text text-anchor="middle" x="1149.71" y="-204.9" font-family="Helvetica,sans-Serif" font-size="32.00">GameBoard.h</text>
</g>
<!-- MineButton.cpp&#45;&gt;GameBoard.h -->
<g id="edge1" class="edge">
<title>MineButton.cpp&#45;&gt;GameBoard.h</title>
<path fill="none" stroke="black" d="M158.32,-2218.62C121.74,-2119.63 14.5,-1790.51 101.71,-1539.59 313.59,-929.92 935.32,-389.11 1105.95,-249.09"/>
<polygon fill="black" stroke="black" points="1108.2,-251.76 1113.73,-242.72 1103.77,-246.34 1108.2,-251.76"/>
</g>
<!-- MineButton.h -->
<g id="node9" class="node">
<title>MineButton.h</title>
<ellipse fill="none" stroke="black" cx="256.71" cy="-1570" rx="145.83" ry="30.31"/>
<text text-anchor="middle" x="256.71" y="-1561.9" font-family="Helvetica,sans-Serif" font-size="32.00">MineButton.h</text>
</g>
<!-- MineButton.cpp&#45;&gt;MineButton.h -->
<g id="edge8" class="edge">
<title>MineButton.cpp&#45;&gt;MineButton.h</title>
<path fill="none" stroke="black" d="M173.5,-2218.47C187.42,-2110.16 235.69,-1734.54 251.59,-1610.84"/>
<polygon fill="black" stroke="black" points="255.09,-1611.05 252.89,-1600.68 248.15,-1610.15 255.09,-1611.05"/>
</g>
<!-- CmdGame.cpp -->
<g id="node3" class="node">
<title>CmdGame.cpp</title>
<ellipse fill="none" stroke="black" cx="584.71" cy="-1570" rx="164.51" ry="30.31"/>
<text text-anchor="middle" x="584.71" y="-1561.9" font-family="Helvetica,sans-Serif" font-size="32.00">CmdGame.cpp</text>
</g>
<!-- common.h -->
<g id="node4" class="node">
<title>common.h</title>
<ellipse fill="none" stroke="black" cx="947.71" cy="-892" rx="118.17" ry="30.31"/>
<text text-anchor="middle" x="947.71" y="-883.9" font-family="Helvetica,sans-Serif" font-size="32.00">common.h</text>
</g>
<!-- CmdGame.cpp&#45;&gt;common.h -->
<g id="edge2" class="edge">
<title>CmdGame.cpp&#45;&gt;common.h</title>
<path fill="none" stroke="black" d="M600.54,-1539.52C658.85,-1430.92 861.7,-1053.17 927.16,-931.25"/>
<polygon fill="black" stroke="black" points="930.35,-932.72 932,-922.26 924.18,-929.41 930.35,-932.72"/>
</g>
<!-- common.h&#45;&gt;GameBoard.h -->
<g id="edge9" class="edge">
<title>common.h&#45;&gt;GameBoard.h</title>
<path fill="none" stroke="black" d="M956.52,-861.47C988.87,-753.05 1101.14,-376.78 1137.93,-253.47"/>
<polygon fill="black" stroke="black" points="1141.34,-254.26 1140.85,-243.68 1134.64,-252.26 1141.34,-254.26"/>
</g>
<!-- GUIGame.cpp -->
<g id="node5" class="node">
<title>GUIGame.cpp</title>
<ellipse fill="none" stroke="black" cx="777.71" cy="-2249" rx="156.96" ry="30.31"/>
<text text-anchor="middle" x="777.71" y="-2240.9" font-family="Helvetica,sans-Serif" font-size="32.00">GUIGame.cpp</text>
</g>
<!-- GUIGame.cpp&#45;&gt;common.h -->
<g id="edge3" class="edge">
<title>GUIGame.cpp&#45;&gt;common.h</title>
<path fill="none" stroke="black" d="M776.37,-2218.48C772.41,-2121.05 763.03,-1801.03 796.71,-1539.59 826.86,-1305.54 905.35,-1032.33 935.59,-932.27"/>
<polygon fill="black" stroke="black" points="938.97,-933.16 938.53,-922.58 932.27,-931.13 938.97,-933.16"/>
</g>
<!-- GUIGame.h -->
<g id="node6" class="node">
<title>GUIGame.h</title>
<ellipse fill="none" stroke="black" cx="1794.71" cy="-1570" rx="132.87" ry="30.31"/>
<text text-anchor="middle" x="1794.71" y="-1561.9" font-family="Helvetica,sans-Serif" font-size="32.00">GUIGame.h</text>
</g>
<!-- GUIGame.cpp&#45;&gt;GUIGame.h -->
<g id="edge6" class="edge">
<title>GUIGame.cpp&#45;&gt;GUIGame.h</title>
<path fill="none" stroke="black" d="M820.43,-2219.56C983.74,-2110.84 1568.13,-1721.83 1744.17,-1604.64"/>
<polygon fill="black" stroke="black" points="1746.34,-1607.4 1752.73,-1598.94 1742.46,-1601.57 1746.34,-1607.4"/>
</g>
<!-- GUIGame.cpp&#45;&gt;MineButton.h -->
<g id="edge7" class="edge">
<title>GUIGame.cpp&#45;&gt;MineButton.h</title>
<path fill="none" stroke="black" d="M754.98,-2218.47C671.11,-2109.49 378.98,-1729.89 285.63,-1608.58"/>
<polygon fill="black" stroke="black" points="288.13,-1606.09 279.25,-1600.3 282.58,-1610.36 288.13,-1606.09"/>
</g>
<!-- GeneralGameWidget.h -->
<g id="node7" class="node">
<title>GeneralGameWidget.h</title>
<ellipse fill="none" stroke="black" cx="1351.71" cy="-892" rx="243.9" ry="30.31"/>
<text text-anchor="middle" x="1351.71" y="-883.9" font-family="Helvetica,sans-Serif" font-size="32.00">GeneralGameWidget.h</text>
</g>
<!-- GUIGame.h&#45;&gt;GeneralGameWidget.h -->
<g id="edge4" class="edge">
<title>GUIGame.h&#45;&gt;GeneralGameWidget.h</title>
<path fill="none" stroke="black" d="M1775.39,-1539.52C1704.23,-1430.93 1456.74,-1053.27 1376.81,-931.31"/>
<polygon fill="black" stroke="black" points="1379.54,-929.08 1371.13,-922.64 1373.68,-932.92 1379.54,-929.08"/>
</g>
<!-- GeneralGameWidget.h&#45;&gt;GameBoard.h -->
<g id="edge10" class="edge">
<title>GeneralGameWidget.h&#45;&gt;GameBoard.h</title>
<path fill="none" stroke="black" d="M1342.9,-861.47C1310.55,-753.05 1198.28,-376.78 1161.48,-253.47"/>
<polygon fill="black" stroke="black" points="1164.77,-252.26 1158.56,-243.68 1158.07,-254.26 1164.77,-252.26"/>
</g>
<!-- GeneralGameWidget.cpp -->
<g id="node8" class="node">
<title>GeneralGameWidget.cpp</title>
<ellipse fill="none" stroke="black" cx="1375.71" cy="-1570" rx="267.99" ry="30.31"/>
<text text-anchor="middle" x="1375.71" y="-1561.9" font-family="Helvetica,sans-Serif" font-size="32.00">GeneralGameWidget.cpp</text>
</g>
<!-- GeneralGameWidget.cpp&#45;&gt;common.h -->
<g id="edge5" class="edge">
<title>GeneralGameWidget.cpp&#45;&gt;common.h</title>
<path fill="none" stroke="black" d="M1357.04,-1539.52C1288.21,-1430.81 1048.64,-1052.41 971.69,-930.89"/>
<polygon fill="black" stroke="black" points="974.54,-928.83 966.23,-922.26 968.62,-932.58 974.54,-928.83"/>
</g>
<!-- GeneralGameWidget.cpp&#45;&gt;GeneralGameWidget.h -->
<g id="edge12" class="edge">
<title>GeneralGameWidget.cpp&#45;&gt;GeneralGameWidget.h</title>
<path fill="none" stroke="black" d="M1374.66,-1539.52C1370.82,-1431.37 1357.5,-1056.29 1353.12,-932.78"/>
<polygon fill="black" stroke="black" points="1356.61,-932.51 1352.76,-922.64 1349.61,-932.75 1356.61,-932.51"/>
</g>
<!-- common.cpp -->
<g id="node10" class="node">
<title>common.cpp</title>
<ellipse fill="none" stroke="black" cx="947.71" cy="-1570" rx="142.26" ry="30.31"/>
<text text-anchor="middle" x="947.71" y="-1561.9" font-family="Helvetica,sans-Serif" font-size="32.00">common.cpp</text>
</g>
<!-- common.cpp&#45;&gt;common.h -->
<g id="edge11" class="edge">
<title>common.cpp&#45;&gt;common.h</title>
<path fill="none" stroke="black" d="M947.71,-1539.52C947.71,-1431.37 947.71,-1056.29 947.71,-932.78"/>
<polygon fill="black" stroke="black" points="951.21,-932.64 947.71,-922.64 944.21,-932.64 951.21,-932.64"/>
</g>
<!-- GameBoard.cpp -->
<g id="node11" class="node">
<title>GameBoard.cpp</title>
<ellipse fill="none" stroke="black" cx="1790.71" cy="-892" rx="177.47" ry="30.31"/>
<text text-anchor="middle" x="1790.71" y="-883.9" font-family="Helvetica,sans-Serif" font-size="32.00">GameBoard.cpp</text>
</g>
<!-- GameBoard.cpp&#45;&gt;GameBoard.h -->
<g id="edge13" class="edge">
<title>GameBoard.cpp&#45;&gt;GameBoard.h</title>
<path fill="none" stroke="black" d="M1763.16,-861.91C1660.22,-753.19 1298.19,-370.82 1184.28,-250.52"/>
<polygon fill="black" stroke="black" points="1186.56,-247.84 1177.15,-242.98 1181.48,-252.65 1186.56,-247.84"/>
</g>
</g>
</svg>
