<?xml version="1.0" encoding="UTF-8" standalone="no"?>
<!DOCTYPE svg PUBLIC "-//W3C//DTD SVG 1.1//EN"
 "http://www.w3.org/Graphics/SVG/1.1/DTD/svg11.dtd">
<!-- Generated by graphviz version 2.44.1 (20220725.2034)
 -->
<!-- Title: source tree Pages: 1 -->
<svg width="576pt" height="720pt"
 viewBox="0.00 0.00 576.00 719.85" xmlns="http://www.w3.org/2000/svg" xmlns:xlink="http://www.w3.org/1999/xlink">
<g id="graph0" class="graph" transform="scale(0.26 0.26) rotate(0) translate(4 2789.69)">
<title>source tree</title>
<polygon fill="white" stroke="transparent" points="-4,4 -4,-2789.69 2231.42,-2789.69 2231.42,4 -4,4"/>
<!-- GUIGame.cpp -->
<g id="node1" class="node">
<title>GUIGame.cpp</title>
<ellipse fill="none" stroke="black" cx="847.94" cy="-2545" rx="156.96" ry="30.31"/>
<text text-anchor="middle" x="847.94" y="-2536.9" font-family="Helvetica,sans-Serif" font-size="32.00">GUIGame.cpp</text>
</g>
<!-- MineButton.h -->
<g id="node2" class="node">
<title>MineButton.h</title>
<ellipse fill="none" stroke="black" cx="1670.94" cy="-1777" rx="145.83" ry="30.31"/>
<text text-anchor="middle" x="1670.94" y="-1768.9" font-family="Helvetica,sans-Serif" font-size="32.00">MineButton.h</text>
</g>
<!-- GUIGame.cpp&#45;&gt;MineButton.h -->
<g id="edge1" class="edge">
<title>GUIGame.cpp&#45;&gt;MineButton.h</title>
<path fill="none" stroke="black" d="M879.19,-2514.91C1007.14,-2395.82 1490.81,-1945.65 1632.01,-1814.23"/>
<polygon fill="black" stroke="black" points="1634.71,-1816.5 1639.65,-1807.12 1629.94,-1811.37 1634.71,-1816.5"/>
</g>
<!-- GUIGame.h -->
<g id="node5" class="node">
<title>GUIGame.h</title>
<ellipse fill="none" stroke="black" cx="132.94" cy="-1777" rx="132.87" ry="30.31"/>
<text text-anchor="middle" x="132.94" y="-1768.9" font-family="Helvetica,sans-Serif" font-size="32.00">GUIGame.h</text>
</g>
<!-- GUIGame.cpp&#45;&gt;GUIGame.h -->
<g id="edge3" class="edge">
<title>GUIGame.cpp&#45;&gt;GUIGame.h</title>
<path fill="none" stroke="black" d="M820.78,-2514.91C709.73,-2395.94 290.26,-1946.55 167.12,-1814.62"/>
<polygon fill="black" stroke="black" points="169.5,-1812.04 160.12,-1807.12 164.38,-1816.82 169.5,-1812.04"/>
</g>
<!-- common.h -->
<g id="node7" class="node">
<title>common.h</title>
<ellipse fill="none" stroke="black" cx="1017.94" cy="-1009" rx="118.17" ry="30.31"/>
<text text-anchor="middle" x="1017.94" y="-1000.9" font-family="Helvetica,sans-Serif" font-size="32.00">common.h</text>
</g>
<!-- GUIGame.cpp&#45;&gt;common.h -->
<g id="edge6" class="edge">
<title>GUIGame.cpp&#45;&gt;common.h</title>
<path fill="none" stroke="black" d="M846.75,-2514.55C842.94,-2409.68 833.09,-2044.83 866.94,-1746.59 897.56,-1476.75 978.13,-1159.04 1007.25,-1049.46"/>
<polygon fill="black" stroke="black" points="1010.7,-1050.08 1009.9,-1039.51 1003.94,-1048.27 1010.7,-1050.08"/>
</g>
<!-- GameBoard.cpp -->
<g id="node3" class="node">
<title>GameBoard.cpp</title>
<ellipse fill="none" stroke="black" cx="2049.94" cy="-1009" rx="177.47" ry="30.31"/>
<text text-anchor="middle" x="2049.94" y="-1000.9" font-family="Helvetica,sans-Serif" font-size="32.00">GameBoard.cpp</text>
</g>
<!-- GameBoard.h -->
<g id="node4" class="node">
<title>GameBoard.h</title>
<ellipse fill="none" stroke="black" cx="1430.94" cy="-241" rx="153.38" ry="30.31"/>
<text text-anchor="middle" x="1430.94" y="-232.9" font-family="Helvetica,sans-Serif" font-size="32.00">GameBoard.h</text>
</g>
<!-- GameBoard.cpp&#45;&gt;GameBoard.h -->
<g id="edge2" class="edge">
<title>GameBoard.cpp&#45;&gt;GameBoard.h</title>
<path fill="none" stroke="black" d="M2026.05,-978.44C1929.42,-858.87 1567.58,-411.09 1460.79,-278.94"/>
<polygon fill="black" stroke="black" points="1463.43,-276.64 1454.42,-271.06 1457.98,-281.04 1463.43,-276.64"/>
</g>
<!-- GeneralGameWidget.h -->
<g id="node8" class="node">
<title>GeneralGameWidget.h</title>
<ellipse fill="none" stroke="black" cx="551.94" cy="-1009" rx="243.9" ry="30.31"/>
<text text-anchor="middle" x="551.94" y="-1000.9" font-family="Helvetica,sans-Serif" font-size="32.00">GeneralGameWidget.h</text>
</g>
<!-- GUIGame.h&#45;&gt;GeneralGameWidget.h -->
<g id="edge12" class="edge">
<title>GUIGame.h&#45;&gt;GeneralGameWidget.h</title>
<path fill="none" stroke="black" d="M149.1,-1746.44C214.24,-1627.36 457.43,-1182.77 530.83,-1048.59"/>
<polygon fill="black" stroke="black" points="534.09,-1049.92 535.82,-1039.47 527.95,-1046.56 534.09,-1049.92"/>
</g>
<!-- GeneralGameWidget.cpp -->
<g id="node6" class="node">
<title>GeneralGameWidget.cpp</title>
<ellipse fill="none" stroke="black" cx="551.94" cy="-1777" rx="267.99" ry="30.31"/>
<text text-anchor="middle" x="551.94" y="-1768.9" font-family="Helvetica,sans-Serif" font-size="32.00">GeneralGameWidget.cpp</text>
</g>
<!-- GeneralGameWidget.cpp&#45;&gt;common.h -->
<g id="edge4" class="edge">
<title>GeneralGameWidget.cpp&#45;&gt;common.h</title>
<path fill="none" stroke="black" d="M569.92,-1746.44C642.43,-1627.24 913.37,-1181.88 994.71,-1048.19"/>
<polygon fill="black" stroke="black" points="997.8,-1049.83 1000.01,-1039.47 991.82,-1046.19 997.8,-1049.83"/>
</g>
<!-- GeneralGameWidget.cpp&#45;&gt;GeneralGameWidget.h -->
<g id="edge13" class="edge">
<title>GeneralGameWidget.cpp&#45;&gt;GeneralGameWidget.h</title>
<path fill="none" stroke="black" d="M551.94,-1746.44C551.94,-1627.72 551.94,-1185.44 551.94,-1049.8"/>
<polygon fill="black" stroke="black" points="555.44,-1049.47 551.94,-1039.47 548.44,-1049.47 555.44,-1049.47"/>
</g>
<!-- common.h&#45;&gt;GameBoard.h -->
<g id="edge5" class="edge">
<title>common.h&#45;&gt;GameBoard.h</title>
<path fill="none" stroke="black" d="M1033.87,-978.44C1098.08,-859.36 1337.78,-414.77 1410.13,-280.59"/>
<polygon fill="black" stroke="black" points="1413.38,-281.93 1415.05,-271.47 1407.22,-278.61 1413.38,-281.93"/>
</g>
<!-- GeneralGameWidget.h&#45;&gt;GameBoard.h -->
<g id="edge7" class="edge">
<title>GeneralGameWidget.h&#45;&gt;GameBoard.h</title>
<path fill="none" stroke="black" d="M585.59,-978.67C722.79,-859.11 1239.78,-408.58 1389.85,-277.8"/>
<polygon fill="black" stroke="black" points="1392.31,-280.3 1397.55,-271.09 1387.72,-275.02 1392.31,-280.3"/>
</g>
<!-- MineButton.cpp -->
<g id="node9" class="node">
<title>MineButton.cpp</title>
<ellipse fill="none" stroke="black" cx="1757.94" cy="-2545" rx="169.91" ry="30.31"/>
<text text-anchor="middle" x="1757.94" y="-2536.9" font-family="Helvetica,sans-Serif" font-size="32.00">MineButton.cpp</text>
</g>
<!-- MineButton.cpp&#45;&gt;MineButton.h -->
<g id="edge10" class="edge">
<title>MineButton.cpp&#45;&gt;MineButton.h</title>
<path fill="none" stroke="black" d="M1754.58,-2514.44C1741.09,-2395.72 1690.86,-1953.44 1675.46,-1817.8"/>
<polygon fill="black" stroke="black" points="1678.89,-1817.01 1674.28,-1807.47 1671.93,-1817.8 1678.89,-1817.01"/>
</g>
<!-- MineButton.cpp&#45;&gt;GameBoard.h -->
<g id="edge8" class="edge">
<title>MineButton.cpp&#45;&gt;GameBoard.h</title>
<path fill="none" stroke="black" d="M1761.63,-2514.6C1773.9,-2415.3 1813.23,-2083.23 1825.94,-1807.41 1854.78,-1181.21 1531.76,-454.39 1449.65,-280.68"/>
<polygon fill="black" stroke="black" points="1452.71,-278.96 1445.26,-271.43 1446.38,-281.96 1452.71,-278.96"/>
</g>
<!-- common.cpp -->
<g id="node10" class="node">
<title>common.cpp</title>
<ellipse fill="none" stroke="black" cx="1017.94" cy="-1777" rx="142.26" ry="30.31"/>
<text text-anchor="middle" x="1017.94" y="-1768.9" font-family="Helvetica,sans-Serif" font-size="32.00">common.cpp</text>
</g>
<!-- common.cpp&#45;&gt;common.h -->
<g id="edge9" class="edge">
<title>common.cpp&#45;&gt;common.h</title>
<path fill="none" stroke="black" d="M1017.94,-1746.44C1017.94,-1627.72 1017.94,-1185.44 1017.94,-1049.8"/>
<polygon fill="black" stroke="black" points="1021.44,-1049.47 1017.94,-1039.47 1014.44,-1049.47 1021.44,-1049.47"/>
</g>
<!-- CmdGame.cpp -->
<g id="node11" class="node">
<title>CmdGame.cpp</title>
<ellipse fill="none" stroke="black" cx="1342.94" cy="-1777" rx="164.51" ry="30.31"/>
<text text-anchor="middle" x="1342.94" y="-1768.9" font-family="Helvetica,sans-Serif" font-size="32.00">CmdGame.cpp</text>
</g>
<!-- CmdGame.cpp&#45;&gt;common.h -->
<g id="edge11" class="edge">
<title>CmdGame.cpp&#45;&gt;common.h</title>
<path fill="none" stroke="black" d="M1330.39,-1746.44C1279.92,-1627.48 1091.62,-1183.66 1034.48,-1048.99"/>
<polygon fill="black" stroke="black" points="1037.57,-1047.31 1030.44,-1039.47 1031.12,-1050.04 1037.57,-1047.31"/>
</g>
</g>
</svg>
