<?xml version="1.0" encoding="UTF-8" standalone="no"?>
<!DOCTYPE svg PUBLIC "-//W3C//DTD SVG 1.1//EN"
 "http://www.w3.org/Graphics/SVG/1.1/DTD/svg11.dtd">
<!-- Generated by graphviz version 2.44.1 (20220725.2034)
 -->
<!-- Title: source tree Pages: 1 -->
<svg width="576pt" height="720pt"
 viewBox="0.00 0.00 576.00 719.67" xmlns="http://www.w3.org/2000/svg" xmlns:xlink="http://www.w3.org/1999/xlink">
<g id="graph0" class="graph" transform="scale(0.3 0.3) rotate(0) translate(4 2414.43)">
<title>source tree</title>
<polygon fill="white" stroke="transparent" points="-4,4 -4,-2414.43 1931.64,-2414.43 1931.64,4 -4,4"/>
<!-- GUIGame.cpp -->
<g id="node1" class="node">
<title>GUIGame.cpp</title>
<ellipse fill="none" stroke="black" cx="847.94" cy="-2202" rx="156.96" ry="30.31"/>
<text text-anchor="middle" x="847.94" y="-2193.9" font-family="Helvetica,sans-Serif" font-size="32.00">GUIGame.cpp</text>
</g>
<!-- common.h -->
<g id="node2" class="node">
<title>common.h</title>
<ellipse fill="none" stroke="black" cx="974.94" cy="-873" rx="118.17" ry="30.31"/>
<text text-anchor="middle" x="974.94" y="-864.9" font-family="Helvetica,sans-Serif" font-size="32.00">common.h</text>
</g>
<!-- GUIGame.cpp&#45;&gt;common.h -->
<g id="edge1" class="edge">
<title>GUIGame.cpp&#45;&gt;common.h</title>
<path fill="none" stroke="black" d="M847.25,-2171.46C845.35,-2075.39 841.66,-1763.14 866.94,-1506.59 889.25,-1280.1 944.72,-1012.29 966.22,-913.31"/>
<polygon fill="black" stroke="black" points="969.66,-913.96 968.38,-903.44 962.82,-912.46 969.66,-913.96"/>
</g>
<!-- MineButton.h -->
<g id="node8" class="node">
<title>MineButton.h</title>
<ellipse fill="none" stroke="black" cx="1670.94" cy="-1537" rx="145.83" ry="30.31"/>
<text text-anchor="middle" x="1670.94" y="-1528.9" font-family="Helvetica,sans-Serif" font-size="32.00">MineButton.h</text>
</g>
<!-- GUIGame.cpp&#45;&gt;MineButton.h -->
<g id="edge6" class="edge">
<title>GUIGame.cpp&#45;&gt;MineButton.h</title>
<path fill="none" stroke="black" d="M883.56,-2172.3C1016.34,-2065.33 1482.21,-1690.04 1627.39,-1573.08"/>
<polygon fill="black" stroke="black" points="1629.69,-1575.72 1635.28,-1566.72 1625.3,-1570.27 1629.69,-1575.72"/>
</g>
<!-- GUIGame.h -->
<g id="node9" class="node">
<title>GUIGame.h</title>
<ellipse fill="none" stroke="black" cx="132.94" cy="-1537" rx="132.87" ry="30.31"/>
<text text-anchor="middle" x="132.94" y="-1528.9" font-family="Helvetica,sans-Serif" font-size="32.00">GUIGame.h</text>
</g>
<!-- GUIGame.cpp&#45;&gt;GUIGame.h -->
<g id="edge7" class="edge">
<title>GUIGame.cpp&#45;&gt;GUIGame.h</title>
<path fill="none" stroke="black" d="M816.75,-2172.09C701.31,-2065.04 298.34,-1691.37 171.48,-1573.74"/>
<polygon fill="black" stroke="black" points="173.59,-1570.93 163.88,-1566.69 168.83,-1576.06 173.59,-1570.93"/>
</g>
<!-- GameBoard.h -->
<g id="node6" class="node">
<title>GameBoard.h</title>
<ellipse fill="none" stroke="black" cx="1131.94" cy="-209" rx="153.38" ry="30.31"/>
<text text-anchor="middle" x="1131.94" y="-200.9" font-family="Helvetica,sans-Serif" font-size="32.00">GameBoard.h</text>
</g>
<!-- common.h&#45;&gt;GameBoard.h -->
<g id="edge11" class="edge">
<title>common.h&#45;&gt;GameBoard.h</title>
<path fill="none" stroke="black" d="M981.99,-842.27C1007.32,-735.44 1093.77,-370.92 1122.54,-249.62"/>
<polygon fill="black" stroke="black" points="1126,-250.19 1124.9,-239.65 1119.19,-248.57 1126,-250.19"/>
</g>
<!-- common.cpp -->
<g id="node3" class="node">
<title>common.cpp</title>
<ellipse fill="none" stroke="black" cx="1017.94" cy="-1537" rx="142.26" ry="30.31"/>
<text text-anchor="middle" x="1017.94" y="-1528.9" font-family="Helvetica,sans-Serif" font-size="32.00">common.cpp</text>
</g>
<!-- common.cpp&#45;&gt;common.h -->
<g id="edge2" class="edge">
<title>common.cpp&#45;&gt;common.h</title>
<path fill="none" stroke="black" d="M1016,-1506.27C1009.07,-1399.55 985.44,-1035.66 977.53,-913.99"/>
<polygon fill="black" stroke="black" points="981,-913.4 976.86,-903.65 974.02,-913.85 981,-913.4"/>
</g>
<!-- GeneralGameWidget.cpp -->
<g id="node4" class="node">
<title>GeneralGameWidget.cpp</title>
<ellipse fill="none" stroke="black" cx="551.94" cy="-1537" rx="267.99" ry="30.31"/>
<text text-anchor="middle" x="551.94" y="-1528.9" font-family="Helvetica,sans-Serif" font-size="32.00">GeneralGameWidget.cpp</text>
</g>
<!-- GeneralGameWidget.cpp&#45;&gt;common.h -->
<g id="edge3" class="edge">
<title>GeneralGameWidget.cpp&#45;&gt;common.h</title>
<path fill="none" stroke="black" d="M570.93,-1506.27C639.55,-1398.89 874.52,-1031.15 950.81,-911.76"/>
<polygon fill="black" stroke="black" points="953.8,-913.58 956.23,-903.27 947.9,-909.82 953.8,-913.58"/>
</g>
<!-- GeneralGameWidget.h -->
<g id="node7" class="node">
<title>GeneralGameWidget.h</title>
<ellipse fill="none" stroke="black" cx="551.94" cy="-873" rx="243.9" ry="30.31"/>
<text text-anchor="middle" x="551.94" y="-864.9" font-family="Helvetica,sans-Serif" font-size="32.00">GeneralGameWidget.h</text>
</g>
<!-- GeneralGameWidget.cpp&#45;&gt;GeneralGameWidget.h -->
<g id="edge5" class="edge">
<title>GeneralGameWidget.cpp&#45;&gt;GeneralGameWidget.h</title>
<path fill="none" stroke="black" d="M551.94,-1506.27C551.94,-1399.55 551.94,-1035.66 551.94,-913.99"/>
<polygon fill="black" stroke="black" points="555.44,-913.65 551.94,-903.65 548.44,-913.65 555.44,-913.65"/>
</g>
<!-- GameBoard.cpp -->
<g id="node5" class="node">
<title>GameBoard.cpp</title>
<ellipse fill="none" stroke="black" cx="1288.94" cy="-873" rx="177.47" ry="30.31"/>
<text text-anchor="middle" x="1288.94" y="-864.9" font-family="Helvetica,sans-Serif" font-size="32.00">GameBoard.cpp</text>
</g>
<!-- GameBoard.cpp&#45;&gt;GameBoard.h -->
<g id="edge4" class="edge">
<title>GameBoard.cpp&#45;&gt;GameBoard.h</title>
<path fill="none" stroke="black" d="M1281.89,-842.27C1256.55,-735.44 1170.1,-370.92 1141.33,-249.62"/>
<polygon fill="black" stroke="black" points="1144.68,-248.57 1138.97,-239.65 1137.87,-250.19 1144.68,-248.57"/>
</g>
<!-- GeneralGameWidget.h&#45;&gt;GameBoard.h -->
<g id="edge13" class="edge">
<title>GeneralGameWidget.h&#45;&gt;GameBoard.h</title>
<path fill="none" stroke="black" d="M577.61,-842.7C671.37,-735.68 995.26,-366 1099.41,-247.13"/>
<polygon fill="black" stroke="black" points="1102.28,-249.16 1106.23,-239.34 1097.01,-244.55 1102.28,-249.16"/>
</g>
<!-- GUIGame.h&#45;&gt;GeneralGameWidget.h -->
<g id="edge9" class="edge">
<title>GUIGame.h&#45;&gt;GeneralGameWidget.h</title>
<path fill="none" stroke="black" d="M151.48,-1506.7C219.08,-1399.9 452.27,-1031.47 527.98,-911.84"/>
<polygon fill="black" stroke="black" points="530.98,-913.66 533.37,-903.34 525.06,-909.91 530.98,-913.66"/>
</g>
<!-- MineButton.cpp -->
<g id="node10" class="node">
<title>MineButton.cpp</title>
<ellipse fill="none" stroke="black" cx="1757.94" cy="-2202" rx="169.91" ry="30.31"/>
<text text-anchor="middle" x="1757.94" y="-2193.9" font-family="Helvetica,sans-Serif" font-size="32.00">MineButton.cpp</text>
</g>
<!-- MineButton.cpp&#45;&gt;GameBoard.h -->
<g id="edge10" class="edge">
<title>MineButton.cpp&#45;&gt;GameBoard.h</title>
<path fill="none" stroke="black" d="M1767.87,-2171.38C1798.9,-2074.4 1888.34,-1758.19 1825.94,-1506.59 1690.65,-961.19 1275.03,-395.24 1161.09,-247.19"/>
<polygon fill="black" stroke="black" points="1163.83,-245.02 1154.95,-239.24 1158.29,-249.3 1163.83,-245.02"/>
</g>
<!-- MineButton.cpp&#45;&gt;MineButton.h -->
<g id="edge8" class="edge">
<title>MineButton.cpp&#45;&gt;MineButton.h</title>
<path fill="none" stroke="black" d="M1754.03,-2171.22C1739.99,-2064.23 1692.08,-1699.17 1676.14,-1577.68"/>
<polygon fill="black" stroke="black" points="1679.6,-1577.15 1674.83,-1567.69 1672.66,-1578.06 1679.6,-1577.15"/>
</g>
<!-- CmdGame.cpp -->
<g id="node11" class="node">
<title>CmdGame.cpp</title>
<ellipse fill="none" stroke="black" cx="1342.94" cy="-1537" rx="164.51" ry="30.31"/>
<text text-anchor="middle" x="1342.94" y="-1528.9" font-family="Helvetica,sans-Serif" font-size="32.00">CmdGame.cpp</text>
</g>
<!-- CmdGame.cpp&#45;&gt;common.h -->
<g id="edge12" class="edge">
<title>CmdGame.cpp&#45;&gt;common.h</title>
<path fill="none" stroke="black" d="M1326.65,-1506.7C1267.34,-1400.01 1062.88,-1032.21 996.17,-912.2"/>
<polygon fill="black" stroke="black" points="999.16,-910.38 991.24,-903.34 993.04,-913.78 999.16,-910.38"/>
</g>
</g>
</svg>
