<?xml version="1.0" encoding="UTF-8" standalone="no"?>
<!DOCTYPE svg PUBLIC "-//W3C//DTD SVG 1.1//EN"
 "http://www.w3.org/Graphics/SVG/1.1/DTD/svg11.dtd">
<!-- Generated by graphviz version 2.44.1 (20220725.2034)
 -->
<!-- Title: source tree Pages: 1 -->
<svg width="576pt" height="720pt"
 viewBox="0.00 0.00 576.00 719.61" xmlns="http://www.w3.org/2000/svg" xmlns:xlink="http://www.w3.org/1999/xlink">
<g id="graph0" class="graph" transform="scale(0.29 0.29) rotate(0) translate(4 2445.7)">
<title>source tree</title>
<polygon fill="white" stroke="transparent" points="-4,4 -4,-2445.7 1956.83,-2445.7 1956.83,4 -4,4"/>
<!-- MineButton.cpp -->
<g id="node1" class="node">
<title>MineButton.cpp</title>
<ellipse fill="none" stroke="black" cx="169.71" cy="-2230" rx="169.91" ry="30.31"/>
<text text-anchor="middle" x="169.71" y="-2221.9" font-family="Helvetica,sans-Serif" font-size="32.00">MineButton.cpp</text>
</g>
<!-- GameBoard.h -->
<g id="node2" class="node">
<title>GameBoard.h</title>
<ellipse fill="none" stroke="black" cx="1203.71" cy="-211" rx="153.38" ry="30.31"/>
<text text-anchor="middle" x="1203.71" y="-202.9" font-family="Helvetica,sans-Serif" font-size="32.00">GameBoard.h</text>
</g>
<!-- MineButton.cpp&#45;&gt;GameBoard.h -->
<g id="edge1" class="edge">
<title>MineButton.cpp&#45;&gt;GameBoard.h</title>
<path fill="none" stroke="black" d="M159.76,-2199.41C128.2,-2100.5 37.36,-1773.66 125.71,-1526.59 344.1,-915.84 981.94,-384.92 1158.15,-246.85"/>
<polygon fill="black" stroke="black" points="1160.46,-249.49 1166.19,-240.58 1156.15,-243.97 1160.46,-249.49"/>
</g>
<!-- MineButton.h -->
<g id="node7" class="node">
<title>MineButton.h</title>
<ellipse fill="none" stroke="black" cx="280.71" cy="-1557" rx="145.83" ry="30.31"/>
<text text-anchor="middle" x="280.71" y="-1548.9" font-family="Helvetica,sans-Serif" font-size="32.00">MineButton.h</text>
</g>
<!-- MineButton.cpp&#45;&gt;MineButton.h -->
<g id="edge4" class="edge">
<title>MineButton.cpp&#45;&gt;MineButton.h</title>
<path fill="none" stroke="black" d="M174.62,-2199.3C192.45,-2091.48 253.81,-1720.6 274.12,-1597.82"/>
<polygon fill="black" stroke="black" points="277.61,-1598.17 275.79,-1587.73 270.7,-1597.03 277.61,-1598.17"/>
</g>
<!-- GeneralGameWidget.cpp -->
<g id="node3" class="node">
<title>GeneralGameWidget.cpp</title>
<ellipse fill="none" stroke="black" cx="996.71" cy="-1557" rx="267.99" ry="30.31"/>
<text text-anchor="middle" x="996.71" y="-1548.9" font-family="Helvetica,sans-Serif" font-size="32.00">GeneralGameWidget.cpp</text>
</g>
<!-- GeneralGameWidget.h -->
<g id="node4" class="node">
<title>GeneralGameWidget.h</title>
<ellipse fill="none" stroke="black" cx="996.71" cy="-884" rx="243.9" ry="30.31"/>
<text text-anchor="middle" x="996.71" y="-875.9" font-family="Helvetica,sans-Serif" font-size="32.00">GeneralGameWidget.h</text>
</g>
<!-- GeneralGameWidget.cpp&#45;&gt;GeneralGameWidget.h -->
<g id="edge2" class="edge">
<title>GeneralGameWidget.cpp&#45;&gt;GeneralGameWidget.h</title>
<path fill="none" stroke="black" d="M996.71,-1526.3C996.71,-1418.48 996.71,-1047.6 996.71,-924.82"/>
<polygon fill="black" stroke="black" points="1000.21,-924.73 996.71,-914.73 993.21,-924.73 1000.21,-924.73"/>
</g>
<!-- common.h -->
<g id="node6" class="node">
<title>common.h</title>
<ellipse fill="none" stroke="black" cx="1411.71" cy="-884" rx="118.17" ry="30.31"/>
<text text-anchor="middle" x="1411.71" y="-875.9" font-family="Helvetica,sans-Serif" font-size="32.00">common.h</text>
</g>
<!-- GeneralGameWidget.cpp&#45;&gt;common.h -->
<g id="edge8" class="edge">
<title>GeneralGameWidget.cpp&#45;&gt;common.h</title>
<path fill="none" stroke="black" d="M1015.07,-1526.3C1082.1,-1417.92 1313.51,-1043.76 1388.24,-922.94"/>
<polygon fill="black" stroke="black" points="1391.27,-924.7 1393.55,-914.35 1385.31,-921.02 1391.27,-924.7"/>
</g>
<!-- GeneralGameWidget.h&#45;&gt;GameBoard.h -->
<g id="edge12" class="edge">
<title>GeneralGameWidget.h&#45;&gt;GameBoard.h</title>
<path fill="none" stroke="black" d="M1005.87,-853.3C1039.2,-745.25 1154.04,-373.01 1191.66,-251.04"/>
<polygon fill="black" stroke="black" points="1195.05,-251.94 1194.65,-241.35 1188.36,-249.88 1195.05,-251.94"/>
</g>
<!-- CmdGame.cpp -->
<g id="node5" class="node">
<title>CmdGame.cpp</title>
<ellipse fill="none" stroke="black" cx="1447.71" cy="-1557" rx="164.51" ry="30.31"/>
<text text-anchor="middle" x="1447.71" y="-1548.9" font-family="Helvetica,sans-Serif" font-size="32.00">CmdGame.cpp</text>
</g>
<!-- CmdGame.cpp&#45;&gt;common.h -->
<g id="edge3" class="edge">
<title>CmdGame.cpp&#45;&gt;common.h</title>
<path fill="none" stroke="black" d="M1446.11,-1526.3C1440.33,-1418.48 1420.43,-1047.6 1413.84,-924.82"/>
<polygon fill="black" stroke="black" points="1417.33,-924.53 1413.3,-914.73 1410.34,-924.91 1417.33,-924.53"/>
</g>
<!-- common.h&#45;&gt;GameBoard.h -->
<g id="edge13" class="edge">
<title>common.h&#45;&gt;GameBoard.h</title>
<path fill="none" stroke="black" d="M1402.5,-853.3C1369.01,-745.25 1253.62,-373.01 1215.81,-251.04"/>
<polygon fill="black" stroke="black" points="1219.11,-249.87 1212.81,-241.35 1212.42,-251.94 1219.11,-249.87"/>
</g>
<!-- GUIGame.cpp -->
<g id="node8" class="node">
<title>GUIGame.cpp</title>
<ellipse fill="none" stroke="black" cx="577.71" cy="-2230" rx="156.96" ry="30.31"/>
<text text-anchor="middle" x="577.71" y="-2221.9" font-family="Helvetica,sans-Serif" font-size="32.00">GUIGame.cpp</text>
</g>
<!-- GUIGame.cpp&#45;&gt;common.h -->
<g id="edge9" class="edge">
<title>GUIGame.cpp&#45;&gt;common.h</title>
<path fill="none" stroke="black" d="M669.87,-2205.36C883.86,-2144.88 1412.1,-1962.25 1621.71,-1587.41 1752.33,-1353.81 1526.69,-1030.07 1441.92,-921.87"/>
<polygon fill="black" stroke="black" points="1444.53,-919.53 1435.59,-913.86 1439.04,-923.87 1444.53,-919.53"/>
</g>
<!-- GUIGame.cpp&#45;&gt;MineButton.h -->
<g id="edge5" class="edge">
<title>GUIGame.cpp&#45;&gt;MineButton.h</title>
<path fill="none" stroke="black" d="M564.56,-2199.3C516.69,-2091.14 351.64,-1718.26 297.82,-1596.67"/>
<polygon fill="black" stroke="black" points="300.95,-1595.08 293.7,-1587.35 294.55,-1597.92 300.95,-1595.08"/>
</g>
<!-- GUIGame.h -->
<g id="node10" class="node">
<title>GUIGame.h</title>
<ellipse fill="none" stroke="black" cx="577.71" cy="-1557" rx="132.87" ry="30.31"/>
<text text-anchor="middle" x="577.71" y="-1548.9" font-family="Helvetica,sans-Serif" font-size="32.00">GUIGame.h</text>
</g>
<!-- GUIGame.cpp&#45;&gt;GUIGame.h -->
<g id="edge7" class="edge">
<title>GUIGame.cpp&#45;&gt;GUIGame.h</title>
<path fill="none" stroke="black" d="M577.71,-2199.3C577.71,-2091.48 577.71,-1720.6 577.71,-1597.82"/>
<polygon fill="black" stroke="black" points="581.21,-1597.73 577.71,-1587.73 574.21,-1597.73 581.21,-1597.73"/>
</g>
<!-- common.cpp -->
<g id="node9" class="node">
<title>common.cpp</title>
<ellipse fill="none" stroke="black" cx="1810.71" cy="-1557" rx="142.26" ry="30.31"/>
<text text-anchor="middle" x="1810.71" y="-1548.9" font-family="Helvetica,sans-Serif" font-size="32.00">common.cpp</text>
</g>
<!-- common.cpp&#45;&gt;common.h -->
<g id="edge6" class="edge">
<title>common.cpp&#45;&gt;common.h</title>
<path fill="none" stroke="black" d="M1793.3,-1526.74C1729.21,-1418.95 1506.31,-1044.09 1434.31,-923.02"/>
<polygon fill="black" stroke="black" points="1437.32,-921.22 1429.2,-914.42 1431.3,-924.8 1437.32,-921.22"/>
</g>
<!-- GUIGame.h&#45;&gt;GeneralGameWidget.h -->
<g id="edge11" class="edge">
<title>GUIGame.h&#45;&gt;GeneralGameWidget.h</title>
<path fill="none" stroke="black" d="M595.98,-1526.74C663.28,-1418.95 897.36,-1044.09 972.96,-923.02"/>
<polygon fill="black" stroke="black" points="976.01,-924.75 978.34,-914.42 970.07,-921.05 976.01,-924.75"/>
</g>
<!-- GameBoard.cpp -->
<g id="node11" class="node">
<title>GameBoard.cpp</title>
<ellipse fill="none" stroke="black" cx="1725.71" cy="-884" rx="177.47" ry="30.31"/>
<text text-anchor="middle" x="1725.71" y="-875.9" font-family="Helvetica,sans-Serif" font-size="32.00">GameBoard.cpp</text>
</g>
<!-- GameBoard.cpp&#45;&gt;GameBoard.h -->
<g id="edge10" class="edge">
<title>GameBoard.cpp&#45;&gt;GameBoard.h</title>
<path fill="none" stroke="black" d="M1702.94,-853.74C1619.01,-745.84 1326.88,-370.34 1233,-249.66"/>
<polygon fill="black" stroke="black" points="1235.49,-247.16 1226.59,-241.42 1229.97,-251.46 1235.49,-247.16"/>
</g>
</g>
</svg>
