<?xml version="1.0" encoding="UTF-8" standalone="no"?>
<!DOCTYPE svg PUBLIC "-//W3C//DTD SVG 1.1//EN"
 "http://www.w3.org/Graphics/SVG/1.1/DTD/svg11.dtd">
<!-- Generated by graphviz version 2.44.1 (20220725.2034)
 -->
<!-- Title: source tree Pages: 1 -->
<svg width="576pt" height="703pt"
 viewBox="0.00 0.00 576.00 703.35" xmlns="http://www.w3.org/2000/svg" xmlns:xlink="http://www.w3.org/1999/xlink">
<g id="graph0" class="graph" transform="scale(0.28 0.28) rotate(0) translate(4 2539.52)">
<title>source tree</title>
<polygon fill="white" stroke="transparent" points="-4,4 -4,-2539.52 2078.97,-2539.52 2078.97,4 -4,4"/>
<!-- GUIGame.cpp -->
<g id="node1" class="node">
<title>GUIGame.cpp</title>
<ellipse fill="none" stroke="black" cx="664.66" cy="-2316" rx="156.96" ry="30.31"/>
<text text-anchor="middle" x="664.66" y="-2307.9" font-family="Helvetica,sans-Serif" font-size="32.00">GUIGame.cpp</text>
</g>
<!-- MineButton.h -->
<g id="node2" class="node">
<title>MineButton.h</title>
<ellipse fill="none" stroke="black" cx="145.66" cy="-918" rx="145.83" ry="30.31"/>
<text text-anchor="middle" x="145.66" y="-909.9" font-family="Helvetica,sans-Serif" font-size="32.00">MineButton.h</text>
</g>
<!-- GUIGame.cpp&#45;&gt;MineButton.h -->
<g id="edge1" class="edge">
<title>GUIGame.cpp&#45;&gt;MineButton.h</title>
<path fill="none" stroke="black" d="M632.04,-2286.21C537.64,-2200.5 264.6,-1934.99 164.66,-1647.41 77.97,-1397.95 120.04,-1070.94 138.51,-958.76"/>
<polygon fill="black" stroke="black" points="142.02,-959.03 140.22,-948.59 135.11,-957.87 142.02,-959.03"/>
</g>
<!-- command.h -->
<g id="node3" class="node">
<title>command.h</title>
<ellipse fill="none" stroke="black" cx="1508.66" cy="-918" rx="130.63" ry="30.31"/>
<text text-anchor="middle" x="1508.66" y="-909.9" font-family="Helvetica,sans-Serif" font-size="32.00">command.h</text>
</g>
<!-- GUIGame.cpp&#45;&gt;command.h -->
<g id="edge2" class="edge">
<title>GUIGame.cpp&#45;&gt;command.h</title>
<path fill="none" stroke="black" d="M790.97,-2297.88C1073.79,-2251.96 1755.18,-2097.41 2036.66,-1647.41 2212.12,-1366.9 1735.67,-1051.86 1566.05,-951.51"/>
<polygon fill="black" stroke="black" points="1567.64,-948.39 1557.25,-946.33 1564.09,-954.42 1567.64,-948.39"/>
</g>
<!-- GUIGame.h -->
<g id="node9" class="node">
<title>GUIGame.h</title>
<ellipse fill="none" stroke="black" cx="664.66" cy="-1617" rx="132.87" ry="30.31"/>
<text text-anchor="middle" x="664.66" y="-1608.9" font-family="Helvetica,sans-Serif" font-size="32.00">GUIGame.h</text>
</g>
<!-- GUIGame.cpp&#45;&gt;GUIGame.h -->
<g id="edge6" class="edge">
<title>GUIGame.cpp&#45;&gt;GUIGame.h</title>
<path fill="none" stroke="black" d="M664.66,-2285.5C664.66,-2174.84 664.66,-1784.4 664.66,-1657.89"/>
<polygon fill="black" stroke="black" points="668.16,-1657.51 664.66,-1647.51 661.16,-1657.51 668.16,-1657.51"/>
</g>
<!-- QT_ResourcePack.h -->
<g id="node5" class="node">
<title>QT_ResourcePack.h</title>
<ellipse fill="none" stroke="black" cx="554.66" cy="-219" rx="222.06" ry="30.31"/>
<text text-anchor="middle" x="554.66" y="-210.9" font-family="Helvetica,sans-Serif" font-size="32.00">QT_ResourcePack.h</text>
</g>
<!-- MineButton.h&#45;&gt;QT_ResourcePack.h -->
<g id="edge13" class="edge">
<title>MineButton.h&#45;&gt;QT_ResourcePack.h</title>
<path fill="none" stroke="black" d="M162.98,-887.5C228.17,-776.4 458.87,-383.26 532.15,-258.37"/>
<polygon fill="black" stroke="black" points="535.3,-259.91 537.35,-249.51 529.27,-256.36 535.3,-259.91"/>
</g>
<!-- GameBoard.h -->
<g id="node11" class="node">
<title>GameBoard.h</title>
<ellipse fill="none" stroke="black" cx="1303.66" cy="-219" rx="153.38" ry="30.31"/>
<text text-anchor="middle" x="1303.66" y="-210.9" font-family="Helvetica,sans-Serif" font-size="32.00">GameBoard.h</text>
</g>
<!-- command.h&#45;&gt;GameBoard.h -->
<g id="edge11" class="edge">
<title>command.h&#45;&gt;GameBoard.h</title>
<path fill="none" stroke="black" d="M1499.99,-887.5C1467.38,-776.62 1352.14,-384.83 1315.17,-259.13"/>
<polygon fill="black" stroke="black" points="1318.52,-258.12 1312.34,-249.51 1311.81,-260.09 1318.52,-258.12"/>
</g>
<!-- QT_ResourcePack.cpp -->
<g id="node4" class="node">
<title>QT_ResourcePack.cpp</title>
<ellipse fill="none" stroke="black" cx="554.66" cy="-918" rx="245.23" ry="30.31"/>
<text text-anchor="middle" x="554.66" y="-909.9" font-family="Helvetica,sans-Serif" font-size="32.00">QT_ResourcePack.cpp</text>
</g>
<!-- QT_ResourcePack.cpp&#45;&gt;QT_ResourcePack.h -->
<g id="edge3" class="edge">
<title>QT_ResourcePack.cpp&#45;&gt;QT_ResourcePack.h</title>
<path fill="none" stroke="black" d="M554.66,-887.5C554.66,-776.84 554.66,-386.4 554.66,-259.89"/>
<polygon fill="black" stroke="black" points="558.16,-259.51 554.66,-249.51 551.16,-259.51 558.16,-259.51"/>
</g>
<!-- GeneralGameWidget.cpp -->
<g id="node6" class="node">
<title>GeneralGameWidget.cpp</title>
<ellipse fill="none" stroke="black" cx="1083.66" cy="-1617" rx="267.99" ry="30.31"/>
<text text-anchor="middle" x="1083.66" y="-1608.9" font-family="Helvetica,sans-Serif" font-size="32.00">GeneralGameWidget.cpp</text>
</g>
<!-- GeneralGameWidget.cpp&#45;&gt;command.h -->
<g id="edge15" class="edge">
<title>GeneralGameWidget.cpp&#45;&gt;command.h</title>
<path fill="none" stroke="black" d="M1101.65,-1586.5C1169.4,-1475.4 1409.12,-1082.26 1485.27,-957.37"/>
<polygon fill="black" stroke="black" points="1488.45,-958.87 1490.67,-948.51 1482.47,-955.23 1488.45,-958.87"/>
</g>
<!-- GeneralGameWidget.h -->
<g id="node7" class="node">
<title>GeneralGameWidget.h</title>
<ellipse fill="none" stroke="black" cx="1099.66" cy="-918" rx="243.9" ry="30.31"/>
<text text-anchor="middle" x="1099.66" y="-909.9" font-family="Helvetica,sans-Serif" font-size="32.00">GeneralGameWidget.h</text>
</g>
<!-- GeneralGameWidget.cpp&#45;&gt;GeneralGameWidget.h -->
<g id="edge4" class="edge">
<title>GeneralGameWidget.cpp&#45;&gt;GeneralGameWidget.h</title>
<path fill="none" stroke="black" d="M1084.34,-1586.5C1086.88,-1475.84 1095.84,-1085.4 1098.75,-958.89"/>
<polygon fill="black" stroke="black" points="1102.26,-958.59 1098.99,-948.51 1095.26,-958.43 1102.26,-958.59"/>
</g>
<!-- GeneralGameWidget.h&#45;&gt;QT_ResourcePack.h -->
<g id="edge14" class="edge">
<title>GeneralGameWidget.h&#45;&gt;QT_ResourcePack.h</title>
<path fill="none" stroke="black" d="M1076.59,-887.5C989.55,-776.18 681.09,-381.68 584.09,-257.63"/>
<polygon fill="black" stroke="black" points="586.66,-255.23 577.74,-249.51 581.14,-259.55 586.66,-255.23"/>
</g>
<!-- GeneralGameWidget.h&#45;&gt;GameBoard.h -->
<g id="edge9" class="edge">
<title>GeneralGameWidget.h&#45;&gt;GameBoard.h</title>
<path fill="none" stroke="black" d="M1108.3,-887.5C1140.75,-776.62 1255.42,-384.83 1292.21,-259.13"/>
<polygon fill="black" stroke="black" points="1295.58,-260.09 1295.03,-249.51 1288.86,-258.13 1295.58,-260.09"/>
</g>
<!-- command.cpp -->
<g id="node8" class="node">
<title>command.cpp</title>
<ellipse fill="none" stroke="black" cx="1524.66" cy="-1617" rx="154.71" ry="30.31"/>
<text text-anchor="middle" x="1524.66" y="-1608.9" font-family="Helvetica,sans-Serif" font-size="32.00">command.cpp</text>
</g>
<!-- command.cpp&#45;&gt;command.h -->
<g id="edge5" class="edge">
<title>command.cpp&#45;&gt;command.h</title>
<path fill="none" stroke="black" d="M1523.99,-1586.5C1521.45,-1475.84 1512.48,-1085.4 1509.58,-958.89"/>
<polygon fill="black" stroke="black" points="1513.07,-958.43 1509.34,-948.51 1506.07,-958.59 1513.07,-958.43"/>
</g>
<!-- GUIGame.h&#45;&gt;GeneralGameWidget.h -->
<g id="edge7" class="edge">
<title>GUIGame.h&#45;&gt;GeneralGameWidget.h</title>
<path fill="none" stroke="black" d="M683.08,-1586.5C752.48,-1475.29 998.27,-1081.47 1075.95,-957"/>
<polygon fill="black" stroke="black" points="1078.92,-958.85 1081.25,-948.51 1072.98,-955.14 1078.92,-958.85"/>
</g>
<!-- GameBoard.cpp -->
<g id="node10" class="node">
<title>GameBoard.cpp</title>
<ellipse fill="none" stroke="black" cx="1834.66" cy="-918" rx="177.47" ry="30.31"/>
<text text-anchor="middle" x="1834.66" y="-909.9" font-family="Helvetica,sans-Serif" font-size="32.00">GameBoard.cpp</text>
</g>
<!-- GameBoard.cpp&#45;&gt;GameBoard.h -->
<g id="edge8" class="edge">
<title>GameBoard.cpp&#45;&gt;GameBoard.h</title>
<path fill="none" stroke="black" d="M1812.19,-887.5C1727.28,-776.05 1426.15,-380.78 1332.01,-257.21"/>
<polygon fill="black" stroke="black" points="1334.7,-254.96 1325.85,-249.12 1329.13,-259.2 1334.7,-254.96"/>
</g>
<!-- MineButton.cpp -->
<g id="node12" class="node">
<title>MineButton.cpp</title>
<ellipse fill="none" stroke="black" cx="343.66" cy="-1617" rx="169.91" ry="30.31"/>
<text text-anchor="middle" x="343.66" y="-1608.9" font-family="Helvetica,sans-Serif" font-size="32.00">MineButton.cpp</text>
</g>
<!-- MineButton.cpp&#45;&gt;MineButton.h -->
<g id="edge12" class="edge">
<title>MineButton.cpp&#45;&gt;MineButton.h</title>
<path fill="none" stroke="black" d="M335.28,-1586.5C303.82,-1475.73 192.71,-1084.61 156.89,-958.51"/>
<polygon fill="black" stroke="black" points="160.15,-957.17 154.05,-948.51 153.41,-959.09 160.15,-957.17"/>
</g>
<!-- MineButton.cpp&#45;&gt;GameBoard.h -->
<g id="edge10" class="edge">
<title>MineButton.cpp&#45;&gt;GameBoard.h</title>
<path fill="none" stroke="black" d="M364.82,-1586.75C431.57,-1494.22 643.11,-1199.19 808.66,-948.41 826.22,-921.81 829.21,-914.26 846.66,-887.59 1005.64,-644.62 1205.87,-358.73 1277.06,-257.67"/>
<polygon fill="black" stroke="black" points="1280.05,-259.5 1282.95,-249.31 1274.33,-255.47 1280.05,-259.5"/>
</g>
<!-- CmdGame.cpp -->
<g id="node13" class="node">
<title>CmdGame.cpp</title>
<ellipse fill="none" stroke="black" cx="1862.66" cy="-1617" rx="164.51" ry="30.31"/>
<text text-anchor="middle" x="1862.66" y="-1608.9" font-family="Helvetica,sans-Serif" font-size="32.00">CmdGame.cpp</text>
</g>
<!-- CmdGame.cpp&#45;&gt;command.h -->
<g id="edge16" class="edge">
<title>CmdGame.cpp&#45;&gt;command.h</title>
<path fill="none" stroke="black" d="M1847.68,-1586.5C1791.31,-1475.51 1591.98,-1083.04 1528.34,-957.75"/>
<polygon fill="black" stroke="black" points="1531.3,-955.84 1523.65,-948.51 1525.06,-959.01 1531.3,-955.84"/>
</g>
</g>
</svg>
